<svg xmlns="http://www.w3.org/2000/svg" xmlns:xlink="http://www.w3.org/1999/xlink" version="1.1" width="1521px" height="301px" viewBox="-0.5 -0.5 1521 301" content="&lt;mxfile&gt;&lt;diagram id=&quot;Jq6jx7LXszXOb3B-7CZP&quot; name=&quot;ページ1&quot;&gt;7Z3vj6I4GMf/Gt9uRETl5Tn745KbzW1mN7m7V6YjHSWL1JQ6o/vXXwsUkdZJq8BCaTLJ2AIVnu/jB/r0KR25D7vjFwz2268ogNFoMg6OI/fjaDJxHG9G/7GaU1YzdeZZxQaHQb7TueJ7+AvmleO89hAGMLnYkSAUkXB/WblGcQzX5KIOYIzeLnd7QdHlt+7BBgoV39cgEmv/CQOyzWoXk/m5/k8Ybrb8m52Zn23ZAb5zfiXJFgTorVTlfhq5Dxghkn3aHR9gxIzH7ZId9/nK1uLEMIyJygGT7IBXEB3yawuj6JAQDAjCSX6O5MQvnJ7unn0k4JlVLRMCMMn1cce0glqcgDCGmFY4aTmKwD4J092zmm0YBY/ghA6EN8RLy5fwCIOnTB62L1XqkTbGiqzxF9r49/xk2GYQhZuYfl7Ti2XfuMQwoefyCBKS7yGaI7fQK8QEHktVuXm+QLSDBJ/oLvnWWa4Ud9W8+HbW3VnkdduS5oWvgtzXNkXLZznoh1wRuTquoM77ijwxV1puEQ5/MR2i3G5lldLyW7iLQEx9FASVqiVKf5OptaknPKAIMSljFENBTbZTgNH+B8AbSPKKPQpjkl6yt6R/1AgP4w/eyKPn+kDLzrlM/9jumDygmDlcmEoEqXhvkAm4JGifNxrBF94+zk3MPj8jQtDuqtQTZalzbV1Fbd0apJ0K0n7766q49KpICKInyjIQb6JMihRt4CyFRC+pBQurVc1Z/XkharmXKKXTNgwCGEut7CpbuWRWV9OqeWNnA2i3BiKKiBgQ6uGHOEgEqYrzVFLPE7EZ/Gb1OAyzfZfJHqzDePOYHTmryOs1IO/x+o/Iq1Vupebq1XtmQawE4nE9IJ61COK5urTt/JBhEPL21Ck8UzaxQRReCNLFYAe7zuG6BTWZu77lbpvc9VvkLu8flbT9/LufgG9Cr69sZYPQ6ziCemtmrlURPghRvOr+Q3HdEpsMY2dh4dsgfJ1Jm/T1+4ha7oHDYu1EvFOWKZus1vRbiBmk1VDYaNR6FrVNotZrE7WzXqLWUzaqQah1xGjQGkPaerACphBWXVijCTsRlLbIbRK5izaRqzFw2mUGq1vZJAaLQ6OHfWAWg9WFNZnBEzGIdNGxeR/Io0Gkn7g8U0Az/6SovIejBebtTfKmBBR1tX9DBooku6inKSgaTyMG3SclKUTdj7ffloSiIbDR90sx7cjiWKPPoo3jNvNQJDlG/RwPnQwyciTJIyplUhszEqohrtEkFlOPLImbJHGbmSk6WUdd5vAgB0t56yXxki0ixoSONFQ1GcDu1PK2Sd62moziXh/t7jBfuQsOjK9iN8W0EVINYY1GrBidt8xtlLltZqW4GqH9LkNY3comQVgM3Zs2RKohrNEQFsNKYE3CV7hKCMJgA6ngBKy3O8i49y6eR4MYL/U4MK+PlxZ19c/Xt2Ghe8ZLC2e/Z7xUqm4td0wxLNTT8VJ3kJEh7hcDGC/VEPj6zbMgYj2CKzVXs+K2B3NPD0Yfx5Lx0sZwPDWjAzMdZAdmKnZgzJm6ryGp0fQV85MsfZukr2SMtDn6aqQidZm+g4zhT8UYPoZrhIMVOe1NgXAdQXwDIKzxeiML4RogLBs4bY7CYrypnzmDU3U7m8RhMaKUc7j7gYnadTWZwp5rodsodCUjp41B1xP7Nf2ELvfKYUHXE3suzxF6Nga5GqoajdyxRW6jyJXM528OuU4v+TpWNqpJfBXj8qYlCGoIazRiFeZJwGAD+fgltV9ITk8wSmf3fzpvyUY5M+g6E4ZlsovynxqMgz/Yih20+OlpB+Lg71T3lNOyDfAYkn/5sfTzf0z6D15e+njkP2hW4PimJ4ZP/5YLpaNY8XxYWuLHiZ7BOYUOeJ1bIDcS4eQfnaezMuOoYsEZS/QtKnFq1Fd4cRbvONE3duspuWdlkYsilMybyC4oP+rsNEJD00pDTrWhzAxCQzd4H/+m9ryPEucH+griUxfdzJW4mWfd7H43U8ghaB9yN3rSLV6r5H3cKGX347Gfzrjf1Ku43/xG9/MqDTnVhmp0P/FpqpL/yTqvNvOT3WidS1VkmZ/yBN4aeigzu1STWv9TLnbh5ndlfupmeyuLa8xiTbNBhvxmw1muSUPgd7qmk1oFV2quZsXtgk33hAP1cSzL/GwMx4Ys2TTINZtmYsrCT3jqOoxrV9Ro+NpVm9qFryzxsyn48q5u3+E7yFWb5mIwi5ofmpN6ryGryQSei1EjS+AmCSzN+mwMwWa83X6ubmWTECzGklgollrFoOR7DWlNxvBibqnbKHVlaZ9NUXdxffXDDkN2McjE+oXYA6VHgwAQYAZgNWQ1GrD2LZDNAlaW5NkYYHv5FsjFIGeQLsTxlQTi13ANV+YEEzSkNRqy15OvLWRrgGyRudsKZHsZKlioJwOZBFkxzvN8InDFUqcMIWwtb0rpPWHn17uWlrB1EFY9FfB+ws79PhJ2PshXAvLuTTkYu4Xrn8lhZwZgNWQ1GrDXu5YWsHUAdt4mYGe9BOwgV0Wbi6l6pk0G1RDWZMT64q1U0NfOk/Ik0/R4yradJ3WP+4mZTZV5Uq8AhyAmq+wNS3bGFNtaMOH6lClXdhsv0l3uuY/7E0Ey+5SmPmXKV5f7+pQpqbp1PKT5xiwuXrjpoB7c/OEsLq4h8PUHOLfeBzil5mpW3C4ufk+nWR/HkilTzeHYlMXF/UF2o32xG23UO+s0VDUawXb5qHYRLJk41RyCNWbFdRnAgxwoKkIrJfXSgAILXq2CcMM82AwU1zFi1H8UO2OF1UtsPHMmiWf6XXvtmM/dh8czq66jGs90xpWWnGpLNwc0aREjRMq7Y7DffkUBZHv8Dw==&lt;/diagram&gt;&lt;/mxfile&gt;"><defs><clipPath id="mx-clip-0-30-30-30-0"><rect x="0" y="30" width="30" height="30"/></clipPath><clipPath id="mx-clip-36-30-144-30-0"><rect x="36" y="30" width="144" height="30"/></clipPath><clipPath id="mx-clip-36-60-144-30-0"><rect x="36" y="60" width="144" height="30"/></clipPath><clipPath id="mx-clip-0-90-30-30-0"><rect x="0" y="90" width="30" height="30"/></clipPath><clipPath id="mx-clip-36-90-144-30-0"><rect x="36" y="90" width="144" height="30"/></clipPath><clipPath id="mx-clip-36-120-144-30-0"><rect x="36" y="120" width="144" height="30"/></clipPath><clipPath id="mx-clip-36-150-144-30-0"><rect x="36" y="150" width="144" height="30"/></clipPath><clipPath id="mx-clip-36-180-144-30-0"><rect x="36" y="180" width="144" height="30"/></clipPath><clipPath id="mx-clip-264-30-30-30-0"><rect x="264" y="30" width="30" height="30"/></clipPath><clipPath id="mx-clip-300-30-144-30-0"><rect x="300" y="30" width="144" height="30"/></clipPath><clipPath id="mx-clip-264-60-30-30-0"><rect x="264" y="60" width="30" height="30"/></clipPath><clipPath id="mx-clip-300-60-144-30-0"><rect x="300" y="60" width="144" height="30"/></clipPath><clipPath id="mx-clip-300-90-144-30-0"><rect x="300" y="90" width="144" height="30"/></clipPath><clipPath id="mx-clip-300-120-144-30-0"><rect x="300" y="120" width="144" height="30"/></clipPath><clipPath id="mx-clip-300-150-144-30-0"><rect x="300" y="150" width="144" height="30"/></clipPath><clipPath id="mx-clip-520-30-30-30-0"><rect x="520" y="30" width="30" height="30"/></clipPath><clipPath id="mx-clip-556-30-204-30-0"><rect x="556" y="30" width="204" height="30"/></clipPath><clipPath id="mx-clip-556-60-204-30-0"><rect x="556" y="60" width="204" height="30"/></clipPath><clipPath id="mx-clip-556-90-204-30-0"><rect x="556" y="90" width="204" height="30"/></clipPath><clipPath id="mx-clip-520-120-30-30-0"><rect x="520" y="120" width="30" height="30"/></clipPath><clipPath id="mx-clip-556-120-204-30-0"><rect x="556" y="120" width="204" height="30"/></clipPath><clipPath id="mx-clip-520-150-30-30-0"><rect x="520" y="150" width="30" height="30"/></clipPath><clipPath id="mx-clip-556-150-204-30-0"><rect x="556" y="150" width="204" height="30"/></clipPath><clipPath id="mx-clip-556-180-204-30-0"><rect x="556" y="180" width="204" height="30"/></clipPath><clipPath id="mx-clip-850-30-30-30-0"><rect x="850" y="30" width="30" height="30"/></clipPath><clipPath id="mx-clip-886-30-214-30-0"><rect x="886" y="30" width="214" height="30"/></clipPath><clipPath id="mx-clip-886-60-214-30-0"><rect x="886" y="60" width="214" height="30"/></clipPath><clipPath id="mx-clip-886-90-214-30-0"><rect x="886" y="90" width="214" height="30"/></clipPath><clipPath id="mx-clip-886-120-214-30-0"><rect x="886" y="120" width="214" height="30"/></clipPath><clipPath id="mx-clip-886-150-214-30-0"><rect x="886" y="150" width="214" height="30"/></clipPath><clipPath id="mx-clip-886-180-214-30-0"><rect x="886" y="180" width="214" height="30"/></clipPath><clipPath id="mx-clip-886-210-214-30-0"><rect x="886" y="210" width="214" height="30"/></clipPath><clipPath id="mx-clip-886-240-214-30-0"><rect x="886" y="240" width="214" height="30"/></clipPath><clipPath id="mx-clip-886-270-214-30-0"><rect x="886" y="270" width="214" height="30"/></clipPath><clipPath id="mx-clip-1170-30-30-30-0"><rect x="1170" y="30" width="30" height="30"/></clipPath><clipPath id="mx-clip-1206-30-314-30-0"><rect x="1206" y="30" width="314" height="30"/></clipPath><clipPath id="mx-clip-1170-60-30-30-0"><rect x="1170" y="60" width="30" height="30"/></clipPath><clipPath id="mx-clip-1206-60-314-30-0"><rect x="1206" y="60" width="314" height="30"/></clipPath><clipPath id="mx-clip-1206-90-314-30-0"><rect x="1206" y="90" width="314" height="30"/></clipPath></defs><g><path d="M 0 30 L 0 0 L 180 0 L 180 30" fill="rgb(255, 255, 255)" stroke="rgb(0, 0, 0)" stroke-miterlimit="10" pointer-events="all"/><path d="M 0 30 L 0 210 L 180 210 L 180 30" fill="none" stroke="rgb(0, 0, 0)" stroke-miterlimit="10" pointer-events="none"/><path d="M 0 30 L 180 30" fill="none" stroke="rgb(0, 0, 0)" stroke-miterlimit="10" pointer-events="none"/><path d="M 30 30 L 30 60 L 30 90 L 30 120 L 30 150 L 30 180 L 30 210" fill="none" stroke="rgb(0, 0, 0)" stroke-miterlimit="10" pointer-events="none"/><g fill="rgb(0, 0, 0)" font-family="Helvetica" font-weight="bold" pointer-events="none" text-anchor="middle" font-size="12px"><text x="89.5" y="19.5">illustrators</text></g><path d="M 0 30 M 180 30 M 180 60 L 0 60" fill="none" stroke="rgb(0, 0, 0)" stroke-linecap="square" stroke-miterlimit="10" pointer-events="none"/><path d="M 0 30 M 30 30 M 30 60 M 0 60" fill="none" stroke="rgb(0, 0, 0)" stroke-linecap="square" stroke-miterlimit="10" pointer-events="none"/><g fill="rgb(0, 0, 0)" font-family="Helvetica" font-weight="bold" pointer-events="none" clip-path="url(#mx-clip-0-30-30-30-0)" text-anchor="middle" font-size="12px"><text x="14.5" y="49.5">PK</text></g><path d="M 30 30 M 180 30 M 180 60 M 30 60" fill="none" stroke="rgb(0, 0, 0)" stroke-linecap="square" stroke-miterlimit="10" pointer-events="none"/><g fill="rgb(0, 0, 0)" font-family="Helvetica" font-weight="bold" text-decoration="underline" pointer-events="none" clip-path="url(#mx-clip-36-30-144-30-0)" font-size="12px"><text x="37.5" y="49.5">id</text></g><path d="M 0 60 M 30 60 M 30 90 M 0 90" fill="none" stroke="rgb(0, 0, 0)" stroke-linecap="square" stroke-miterlimit="10" pointer-events="none"/><path d="M 30 60 M 180 60 M 180 90 M 30 90" fill="none" stroke="rgb(0, 0, 0)" stroke-linecap="square" stroke-miterlimit="10" pointer-events="none"/><g fill="rgb(0, 0, 0)" font-family="Helvetica" pointer-events="none" clip-path="url(#mx-clip-36-60-144-30-0)" font-size="12px"><text x="37.5" y="79.5">name</text></g><path d="M 0 90 M 30 90 M 30 120 M 0 120" fill="none" stroke="rgb(0, 0, 0)" stroke-linecap="square" stroke-miterlimit="10" pointer-events="none"/><g fill="rgb(0, 0, 0)" font-family="Helvetica" pointer-events="none" clip-path="url(#mx-clip-0-90-30-30-0)" text-anchor="middle" font-size="12px"><text x="14.5" y="109.5">FK</text></g><path d="M 30 90 M 180 90 M 180 120 M 30 120" fill="none" stroke="rgb(0, 0, 0)" stroke-linecap="square" stroke-miterlimit="10" pointer-events="none"/><g fill="rgb(0, 0, 0)" font-family="Helvetica" pointer-events="none" clip-path="url(#mx-clip-36-90-144-30-0)" font-size="12px"><text x="37.5" y="109.5">cover_illustration_id</text></g><path d="M 0 120 M 30 120 M 30 150 M 0 150" fill="none" stroke="rgb(0, 0, 0)" stroke-linecap="square" stroke-miterlimit="10" pointer-events="none"/><path d="M 30 120 M 180 120 M 180 150 M 30 150" fill="none" stroke="rgb(0, 0, 0)" stroke-linecap="square" stroke-miterlimit="10" pointer-events="none"/><g fill="rgb(0, 0, 0)" font-family="Helvetica" pointer-events="none" clip-path="url(#mx-clip-36-120-144-30-0)" font-size="12px"><text x="37.5" y="139.5">illustrations_count</text></g><path d="M 0 150 M 30 150 M 30 180 M 0 180" fill="none" stroke="rgb(0, 0, 0)" stroke-linecap="square" stroke-miterlimit="10" pointer-events="none"/><path d="M 30 150 M 180 150 M 180 180 M 30 180" fill="none" stroke="rgb(0, 0, 0)" stroke-linecap="square" stroke-miterlimit="10" pointer-events="none"/><g fill="rgb(0, 0, 0)" font-family="Helvetica" pointer-events="none" clip-path="url(#mx-clip-36-150-144-30-0)" font-size="12px"><text x="37.5" y="169.5">created_at</text></g><path d="M 0 180 M 30 180 M 30 210 M 0 210" fill="none" stroke="rgb(0, 0, 0)" stroke-linecap="square" stroke-miterlimit="10" pointer-events="none"/><path d="M 30 180 M 180 180 M 180 210 M 30 210" fill="none" stroke="rgb(0, 0, 0)" stroke-linecap="square" stroke-miterlimit="10" pointer-events="none"/><g fill="rgb(0, 0, 0)" font-family="Helvetica" pointer-events="none" clip-path="url(#mx-clip-36-180-144-30-0)" font-size="12px"><text x="37.5" y="199.5">updated_at</text></g><path d="M 264 30 L 264 0 L 444 0 L 444 30" fill="rgb(255, 255, 255)" stroke="rgb(0, 0, 0)" stroke-miterlimit="10" pointer-events="none"/><path d="M 264 30 L 264 180 L 444 180 L 444 30" fill="none" stroke="rgb(0, 0, 0)" stroke-miterlimit="10" pointer-events="none"/><path d="M 264 30 L 444 30" fill="none" stroke="rgb(0, 0, 0)" stroke-miterlimit="10" pointer-events="none"/><path d="M 294 30 L 294 60 L 294 90 L 294 120 L 294 150 L 294 180" fill="none" stroke="rgb(0, 0, 0)" stroke-miterlimit="10" pointer-events="none"/><g fill="rgb(0, 0, 0)" font-family="Helvetica" font-weight="bold" pointer-events="none" text-anchor="middle" font-size="12px"><text x="353.5" y="19.5">illustrations</text></g><path d="M 264 30 M 444 30 M 444 60 L 264 60" fill="none" stroke="rgb(0, 0, 0)" stroke-linecap="square" stroke-miterlimit="10" pointer-events="none"/><path d="M 264 30 M 294 30 M 294 60 M 264 60" fill="none" stroke="rgb(0, 0, 0)" stroke-linecap="square" stroke-miterlimit="10" pointer-events="none"/><g fill="rgb(0, 0, 0)" font-family="Helvetica" font-weight="bold" pointer-events="none" clip-path="url(#mx-clip-264-30-30-30-0)" text-anchor="middle" font-size="12px"><text x="278.5" y="49.5">PK</text></g><path d="M 294 30 M 444 30 M 444 60 M 294 60" fill="none" stroke="rgb(0, 0, 0)" stroke-linecap="square" stroke-miterlimit="10" pointer-events="none"/><g fill="rgb(0, 0, 0)" font-family="Helvetica" font-weight="bold" text-decoration="underline" pointer-events="none" clip-path="url(#mx-clip-300-30-144-30-0)" font-size="12px"><text x="301.5" y="49.5">id</text></g><path d="M 264 60 M 294 60 M 294 90 M 264 90" fill="none" stroke="rgb(0, 0, 0)" stroke-linecap="square" stroke-miterlimit="10" pointer-events="none"/><g fill="rgb(0, 0, 0)" font-family="Helvetica" pointer-events="none" clip-path="url(#mx-clip-264-60-30-30-0)" text-anchor="middle" font-size="12px"><text x="278.5" y="79.5">FK</text></g><path d="M 294 60 M 444 60 M 444 90 M 294 90" fill="none" stroke="rgb(0, 0, 0)" stroke-linecap="square" stroke-miterlimit="10" pointer-events="none"/><g fill="rgb(0, 0, 0)" font-family="Helvetica" pointer-events="none" clip-path="url(#mx-clip-300-60-144-30-0)" font-size="12px"><text x="301.5" y="79.5">illustrator_id</text></g><path d="M 264 90 M 294 90 M 294 120 M 264 120" fill="none" stroke="rgb(0, 0, 0)" stroke-linecap="square" stroke-miterlimit="10" pointer-events="none"/><path d="M 294 90 M 444 90 M 444 120 M 294 120" fill="none" stroke="rgb(0, 0, 0)" stroke-linecap="square" stroke-miterlimit="10" pointer-events="none"/><g fill="rgb(0, 0, 0)" font-family="Helvetica" pointer-events="none" clip-path="url(#mx-clip-300-90-144-30-0)" font-size="12px"><text x="301.5" y="109.5">shot_at</text></g><path d="M 264 120 M 294 120 M 294 150 M 264 150" fill="none" stroke="rgb(0, 0, 0)" stroke-linecap="square" stroke-miterlimit="10" pointer-events="none"/><path d="M 294 120 M 444 120 M 444 150 M 294 150" fill="none" stroke="rgb(0, 0, 0)" stroke-linecap="square" stroke-miterlimit="10" pointer-events="none"/><g fill="rgb(0, 0, 0)" font-family="Helvetica" pointer-events="none" clip-path="url(#mx-clip-300-120-144-30-0)" font-size="12px"><text x="301.5" y="139.5">created_at</text></g><path d="M 264 150 M 294 150 M 294 180 M 264 180" fill="none" stroke="rgb(0, 0, 0)" stroke-linecap="square" stroke-miterlimit="10" pointer-events="none"/><path d="M 294 150 M 444 150 M 444 180 M 294 180" fill="none" stroke="rgb(0, 0, 0)" stroke-linecap="square" stroke-miterlimit="10" pointer-events="none"/><g fill="rgb(0, 0, 0)" font-family="Helvetica" pointer-events="none" clip-path="url(#mx-clip-300-150-144-30-0)" font-size="12px"><text x="301.5" y="169.5">updated_at</text></g><path d="M 520 30 L 520 0 L 760 0 L 760 30" fill="rgb(255, 255, 255)" stroke="rgb(0, 0, 0)" stroke-miterlimit="10" pointer-events="none"/><path d="M 520 30 L 520 210 L 760 210 L 760 30" fill="none" stroke="rgb(0, 0, 0)" stroke-miterlimit="10" pointer-events="none"/><path d="M 520 30 L 760 30" fill="none" stroke="rgb(0, 0, 0)" stroke-miterlimit="10" pointer-events="none"/><path d="M 550 30 L 550 60 L 550 90 L 550 120 L 550 150 L 550 180 L 550 210" fill="none" stroke="rgb(0, 0, 0)" stroke-miterlimit="10" pointer-events="none"/><g fill="rgb(0, 0, 0)" font-family="Helvetica" font-weight="bold" pointer-events="none" text-anchor="middle" font-size="12px"><text x="639.5" y="19.5">active_storage_attachments</text></g><path d="M 520 30 M 760 30 M 760 60 L 520 60" fill="none" stroke="rgb(0, 0, 0)" stroke-linecap="square" stroke-miterlimit="10" pointer-events="none"/><path d="M 520 30 M 550 30 M 550 60 M 520 60" fill="none" stroke="rgb(0, 0, 0)" stroke-linecap="square" stroke-miterlimit="10" pointer-events="none"/><g fill="rgb(0, 0, 0)" font-family="Helvetica" font-weight="bold" pointer-events="none" clip-path="url(#mx-clip-520-30-30-30-0)" text-anchor="middle" font-size="12px"><text x="534.5" y="49.5">PK</text></g><path d="M 550 30 M 760 30 M 760 60 M 550 60" fill="none" stroke="rgb(0, 0, 0)" stroke-linecap="square" stroke-miterlimit="10" pointer-events="none"/><g fill="rgb(0, 0, 0)" font-family="Helvetica" font-weight="bold" text-decoration="underline" pointer-events="none" clip-path="url(#mx-clip-556-30-204-30-0)" font-size="12px"><text x="557.5" y="49.5">id</text></g><path d="M 520 60 M 550 60 M 550 90 M 520 90" fill="none" stroke="rgb(0, 0, 0)" stroke-linecap="square" stroke-miterlimit="10" pointer-events="none"/><path d="M 550 60 M 760 60 M 760 90 M 550 90" fill="none" stroke="rgb(0, 0, 0)" stroke-linecap="square" stroke-miterlimit="10" pointer-events="none"/><g fill="rgb(0, 0, 0)" font-family="Helvetica" pointer-events="none" clip-path="url(#mx-clip-556-60-204-30-0)" font-size="12px"><text x="557.5" y="79.5">name</text></g><path d="M 520 90 M 550 90 M 550 120 M 520 120" fill="none" stroke="rgb(0, 0, 0)" stroke-linecap="square" stroke-miterlimit="10" pointer-events="none"/><path d="M 550 90 M 760 90 M 760 120 M 550 120" fill="none" stroke="rgb(0, 0, 0)" stroke-linecap="square" stroke-miterlimit="10" pointer-events="none"/><g fill="rgb(0, 0, 0)" font-family="Helvetica" pointer-events="none" clip-path="url(#mx-clip-556-90-204-30-0)" font-size="12px"><text x="557.5" y="109.5">record_type</text></g><path d="M 520 120 M 550 120 M 550 150 M 520 150" fill="none" stroke="rgb(0, 0, 0)" stroke-linecap="square" stroke-miterlimit="10" pointer-events="none"/><g fill="rgb(0, 0, 0)" font-family="Helvetica" pointer-events="none" clip-path="url(#mx-clip-520-120-30-30-0)" text-anchor="middle" font-size="12px"><text x="534.5" y="139.5">FK</text></g><path d="M 550 120 M 760 120 M 760 150 M 550 150" fill="none" stroke="rgb(0, 0, 0)" stroke-linecap="square" stroke-miterlimit="10" pointer-events="none"/><g fill="rgb(0, 0, 0)" font-family="Helvetica" pointer-events="none" clip-path="url(#mx-clip-556-120-204-30-0)" font-size="12px"><text x="557.5" y="139.5">record_id</text></g><path d="M 520 150 M 550 150 M 550 180 M 520 180" fill="none" stroke="rgb(0, 0, 0)" stroke-linecap="square" stroke-miterlimit="10" pointer-events="none"/><g fill="rgb(0, 0, 0)" font-family="Helvetica" pointer-events="none" clip-path="url(#mx-clip-520-150-30-30-0)" text-anchor="middle" font-size="12px"><text x="534.5" y="169.5">FK</text></g><path d="M 550 150 M 760 150 M 760 180 M 550 180" fill="none" stroke="rgb(0, 0, 0)" stroke-linecap="square" stroke-miterlimit="10" pointer-events="none"/><g fill="rgb(0, 0, 0)" font-family="Helvetica" pointer-events="none" clip-path="url(#mx-clip-556-150-204-30-0)" font-size="12px"><text x="557.5" y="169.5">blob_id</text></g><path d="M 520 180 M 550 180 M 550 210 M 520 210" fill="none" stroke="rgb(0, 0, 0)" stroke-linecap="square" stroke-miterlimit="10" pointer-events="none"/><path d="M 550 180 M 760 180 M 760 210 M 550 210" fill="none" stroke="rgb(0, 0, 0)" stroke-linecap="square" stroke-miterlimit="10" pointer-events="none"/><g fill="rgb(0, 0, 0)" font-family="Helvetica" pointer-events="none" clip-path="url(#mx-clip-556-180-204-30-0)" font-size="12px"><text x="557.5" y="199.5">created_at</text></g><path d="M 180 105 L 200 105 Q 210 105 213.71 95.72 L 230.29 54.28 Q 234 45 244 45 L 264 45" fill="none" stroke="rgb(0, 0, 0)" stroke-miterlimit="10" pointer-events="none"/><path d="M 184 101 L 184 109 M 188 101 L 188 109" fill="none" stroke="rgb(0, 0, 0)" stroke-miterlimit="10" pointer-events="none"/><path d="M 260 49 L 260 41 M 256 49 L 256 41" fill="none" stroke="rgb(0, 0, 0)" stroke-miterlimit="10" pointer-events="none"/><path d="M 180 45 L 200 45 Q 210 45 216.25 52.81 L 227.75 67.19 Q 234 75 244 75 L 264 75" fill="none" stroke="rgb(0, 0, 0)" stroke-miterlimit="10" pointer-events="none"/><path d="M 256 79 L 256 71 M 264 71 L 256 75 L 264 79" fill="none" stroke="rgb(0, 0, 0)" stroke-miterlimit="10" pointer-events="none"/><path d="M 444 45 L 464 45 Q 474 45 475.75 54.85 L 488.25 125.15 Q 490 135 500 135 L 520 135" fill="none" stroke="rgb(0, 0, 0)" stroke-miterlimit="10" pointer-events="none"/><path d="M 448 41 L 448 49 M 452 41 L 452 49" fill="none" stroke="rgb(0, 0, 0)" stroke-miterlimit="10" pointer-events="none"/><path d="M 516 139 L 516 131 M 512 139 L 512 131" fill="none" stroke="rgb(0, 0, 0)" stroke-miterlimit="10" pointer-events="none"/><path d="M 850 30 L 850 0 L 1100 0 L 1100 30" fill="rgb(255, 255, 255)" stroke="rgb(0, 0, 0)" stroke-miterlimit="10" pointer-events="none"/><path d="M 850 30 L 850 300 L 1100 300 L 1100 30" fill="none" stroke="rgb(0, 0, 0)" stroke-miterlimit="10" pointer-events="none"/><path d="M 850 30 L 1100 30" fill="none" stroke="rgb(0, 0, 0)" stroke-miterlimit="10" pointer-events="none"/><path d="M 880 30 L 880 60 L 880 90 L 880 120 L 880 150 L 880 180 L 880 210 L 880 240 L 880 270 L 880 300" fill="none" stroke="rgb(0, 0, 0)" stroke-miterlimit="10" pointer-events="none"/><g fill="rgb(0, 0, 0)" font-family="Helvetica" font-weight="bold" pointer-events="none" text-anchor="middle" font-size="12px"><text x="974.5" y="19.5">active_storage_blobs</text></g><path d="M 850 30 M 1100 30 M 1100 60 L 850 60" fill="none" stroke="rgb(0, 0, 0)" stroke-linecap="square" stroke-miterlimit="10" pointer-events="none"/><path d="M 850 30 M 880 30 M 880 60 M 850 60" fill="none" stroke="rgb(0, 0, 0)" stroke-linecap="square" stroke-miterlimit="10" pointer-events="none"/><g fill="rgb(0, 0, 0)" font-family="Helvetica" font-weight="bold" pointer-events="none" clip-path="url(#mx-clip-850-30-30-30-0)" text-anchor="middle" font-size="12px"><text x="864.5" y="49.5">PK</text></g><path d="M 880 30 M 1100 30 M 1100 60 M 880 60" fill="none" stroke="rgb(0, 0, 0)" stroke-linecap="square" stroke-miterlimit="10" pointer-events="none"/><g fill="rgb(0, 0, 0)" font-family="Helvetica" font-weight="bold" text-decoration="underline" pointer-events="none" clip-path="url(#mx-clip-886-30-214-30-0)" font-size="12px"><text x="887.5" y="49.5">id</text></g><path d="M 850 60 M 880 60 M 880 90 M 850 90" fill="none" stroke="rgb(0, 0, 0)" stroke-linecap="square" stroke-miterlimit="10" pointer-events="none"/><path d="M 880 60 M 1100 60 M 1100 90 M 880 90" fill="none" stroke="rgb(0, 0, 0)" stroke-linecap="square" stroke-miterlimit="10" pointer-events="none"/><g fill="rgb(0, 0, 0)" font-family="Helvetica" pointer-events="none" clip-path="url(#mx-clip-886-60-214-30-0)" font-size="12px"><text x="887.5" y="79.5">key</text></g><path d="M 850 90 M 880 90 M 880 120 M 850 120" fill="none" stroke="rgb(0, 0, 0)" stroke-linecap="square" stroke-miterlimit="10" pointer-events="none"/><path d="M 880 90 M 1100 90 M 1100 120 M 880 120" fill="none" stroke="rgb(0, 0, 0)" stroke-linecap="square" stroke-miterlimit="10" pointer-events="none"/><g fill="rgb(0, 0, 0)" font-family="Helvetica" pointer-events="none" clip-path="url(#mx-clip-886-90-214-30-0)" font-size="12px"><text x="887.5" y="109.5">filename</text></g><path d="M 850 120 M 880 120 M 880 150 M 850 150" fill="none" stroke="rgb(0, 0, 0)" stroke-linecap="square" stroke-miterlimit="10" pointer-events="none"/><path d="M 880 120 M 1100 120 M 1100 150 M 880 150" fill="none" stroke="rgb(0, 0, 0)" stroke-linecap="square" stroke-miterlimit="10" pointer-events="none"/><g fill="rgb(0, 0, 0)" font-family="Helvetica" pointer-events="none" clip-path="url(#mx-clip-886-120-214-30-0)" font-size="12px"><text x="887.5" y="139.5">content_type</text></g><path d="M 850 150 M 880 150 M 880 180 M 850 180" fill="none" stroke="rgb(0, 0, 0)" stroke-linecap="square" stroke-miterlimit="10" pointer-events="none"/><path d="M 880 150 M 1100 150 M 1100 180 M 880 180" fill="none" stroke="rgb(0, 0, 0)" stroke-linecap="square" stroke-miterlimit="10" pointer-events="none"/><g fill="rgb(0, 0, 0)" font-family="Helvetica" pointer-events="none" clip-path="url(#mx-clip-886-150-214-30-0)" font-size="12px"><text x="887.5" y="169.5">metadata</text></g><path d="M 850 180 M 880 180 M 880 210 M 850 210" fill="none" stroke="rgb(0, 0, 0)" stroke-linecap="square" stroke-miterlimit="10" pointer-events="none"/><path d="M 880 180 M 1100 180 M 1100 210 M 880 210" fill="none" stroke="rgb(0, 0, 0)" stroke-linecap="square" stroke-miterlimit="10" pointer-events="none"/><g fill="rgb(0, 0, 0)" font-family="Helvetica" pointer-events="none" clip-path="url(#mx-clip-886-180-214-30-0)" font-size="12px"><text x="887.5" y="199.5">service_name</text></g><path d="M 850 210 M 880 210 M 880 240 M 850 240" fill="none" stroke="rgb(0, 0, 0)" stroke-linecap="square" stroke-miterlimit="10" pointer-events="none"/><path d="M 880 210 M 1100 210 M 1100 240 M 880 240" fill="none" stroke="rgb(0, 0, 0)" stroke-linecap="square" stroke-miterlimit="10" pointer-events="none"/><g fill="rgb(0, 0, 0)" font-family="Helvetica" pointer-events="none" clip-path="url(#mx-clip-886-210-214-30-0)" font-size="12px"><text x="887.5" y="229.5">byte_size</text></g><path d="M 850 240 M 880 240 M 880 270 M 850 270" fill="none" stroke="rgb(0, 0, 0)" stroke-linecap="square" stroke-miterlimit="10" pointer-events="none"/><path d="M 880 240 M 1100 240 M 1100 270 M 880 270" fill="none" stroke="rgb(0, 0, 0)" stroke-linecap="square" stroke-miterlimit="10" pointer-events="none"/><g fill="rgb(0, 0, 0)" font-family="Helvetica" pointer-events="none" clip-path="url(#mx-clip-886-240-214-30-0)" font-size="12px"><text x="887.5" y="259.5">checksum</text></g><path d="M 850 270 M 880 270 M 880 300 M 850 300" fill="none" stroke="rgb(0, 0, 0)" stroke-linecap="square" stroke-miterlimit="10" pointer-events="none"/><path d="M 880 270 M 1100 270 M 1100 300 M 880 300" fill="none" stroke="rgb(0, 0, 0)" stroke-linecap="square" stroke-miterlimit="10" pointer-events="none"/><g fill="rgb(0, 0, 0)" font-family="Helvetica" pointer-events="none" clip-path="url(#mx-clip-886-270-214-30-0)" font-size="12px"><text x="887.5" y="289.5">created_at</text></g><path d="M 760 165 L 780 165 Q 790 165 792.43 155.3 L 817.57 54.7 Q 820 45 830 45 L 850 45" fill="none" stroke="rgb(0, 0, 0)" stroke-miterlimit="10" pointer-events="none"/><path d="M 764 161 L 764 169 M 768 161 L 768 169" fill="none" stroke="rgb(0, 0, 0)" stroke-miterlimit="10" pointer-events="none"/><path d="M 846 49 L 846 41 M 842 49 L 842 41" fill="none" stroke="rgb(0, 0, 0)" stroke-miterlimit="10" pointer-events="none"/><path d="M 1170 30 L 1170 0 L 1520 0 L 1520 30" fill="rgb(255, 255, 255)" stroke="rgb(0, 0, 0)" stroke-miterlimit="10" pointer-events="none"/><path d="M 1170 30 L 1170 120 L 1520 120 L 1520 30" fill="none" stroke="rgb(0, 0, 0)" stroke-miterlimit="10" pointer-events="none"/><path d="M 1170 30 L 1520 30" fill="none" stroke="rgb(0, 0, 0)" stroke-miterlimit="10" pointer-events="none"/><path d="M 1200 30 L 1200 60 L 1200 90 L 1200 120" fill="none" stroke="rgb(0, 0, 0)" stroke-miterlimit="10" pointer-events="none"/><g fill="rgb(0, 0, 0)" font-family="Helvetica" font-weight="bold" pointer-events="none" text-anchor="middle" font-size="12px"><text x="1344.5" y="19.5">active_storage_variant_records</text></g><path d="M 1170 30 M 1520 30 M 1520 60 L 1170 60" fill="none" stroke="rgb(0, 0, 0)" stroke-linecap="square" stroke-miterlimit="10" pointer-events="none"/><path d="M 1170 30 M 1200 30 M 1200 60 M 1170 60" fill="none" stroke="rgb(0, 0, 0)" stroke-linecap="square" stroke-miterlimit="10" pointer-events="none"/><g fill="rgb(0, 0, 0)" font-family="Helvetica" font-weight="bold" pointer-events="none" clip-path="url(#mx-clip-1170-30-30-30-0)" text-anchor="middle" font-size="12px"><text x="1184.5" y="49.5">PK</text></g><path d="M 1200 30 M 1520 30 M 1520 60 M 1200 60" fill="none" stroke="rgb(0, 0, 0)" stroke-linecap="square" stroke-miterlimit="10" pointer-events="none"/><g fill="rgb(0, 0, 0)" font-family="Helvetica" font-weight="bold" text-decoration="underline" pointer-events="none" clip-path="url(#mx-clip-1206-30-314-30-0)" font-size="12px"><text x="1207.5" y="49.5">id</text></g><path d="M 1170 60 M 1200 60 M 1200 90 M 1170 90" fill="none" stroke="rgb(0, 0, 0)" stroke-linecap="square" stroke-miterlimit="10" pointer-events="none"/><g fill="rgb(0, 0, 0)" font-family="Helvetica" pointer-events="none" clip-path="url(#mx-clip-1170-60-30-30-0)" text-anchor="middle" font-size="12px"><text x="1184.5" y="79.5">FK</text></g><path d="M 1200 60 M 1520 60 M 1520 90 M 1200 90" fill="none" stroke="rgb(0, 0, 0)" stroke-linecap="square" stroke-miterlimit="10" pointer-events="none"/><g fill="rgb(0, 0, 0)" font-family="Helvetica" pointer-events="none" clip-path="url(#mx-clip-1206-60-314-30-0)" font-size="12px"><text x="1207.5" y="79.5">blob_id</text></g><path d="M 1170 90 M 1200 90 M 1200 120 M 1170 120" fill="none" stroke="rgb(0, 0, 0)" stroke-linecap="square" stroke-miterlimit="10" pointer-events="none"/><path d="M 1200 90 M 1520 90 M 1520 120 M 1200 120" fill="none" stroke="rgb(0, 0, 0)" stroke-linecap="square" stroke-miterlimit="10" pointer-events="none"/><g fill="rgb(0, 0, 0)" font-family="Helvetica" pointer-events="none" clip-path="url(#mx-clip-1206-90-314-30-0)" font-size="12px"><text x="1207.5" y="109.5">variation_digest</text></g><path d="M 1100 45 L 1120 45 Q 1130 45 1133.16 54.49 L 1136.84 65.51 Q 1140 75 1150 75 L 1170 75" fill="none" stroke="rgb(0, 0, 0)" stroke-miterlimit="10" pointer-events="none"/><path d="M 1104 41 L 1104 49 M 1108 41 L 1108 49" fill="none" stroke="rgb(0, 0, 0)" stroke-miterlimit="10" pointer-events="none"/><path d="M 1166 79 L 1166 71 M 1162 79 L 1162 71" fill="none" stroke="rgb(0, 0, 0)" stroke-miterlimit="10" pointer-events="none"/></g></svg>